<svg width="18" height="18" viewBox="0 0 18 18" fill="none" xmlns="http://www.w3.org/2000/svg">
<path d="M8.94006 5.96026C7.29804 5.96026 5.95803 7.30028 5.95803 8.9423C5.95803 10.5843 7.29804 11.9243 8.94006 11.9243C10.5821 11.9243 11.9221 10.5843 11.9221 8.9423C11.9221 7.30028 10.5821 5.96026 8.94006 5.96026ZM17.8839 8.9423C17.8839 7.70743 17.8951 6.48374 17.8258 5.25111C17.7564 3.81937 17.4298 2.54871 16.3828 1.50175C15.3337 0.452557 14.0652 0.128179 12.6335 0.0588296C11.3986 -0.0105201 10.1749 0.000665408 8.9423 0.000665408C7.70743 0.000665408 6.48374 -0.0105201 5.25111 0.0588296C3.81937 0.128179 2.54871 0.454794 1.50175 1.50175C0.452557 2.55094 0.128179 3.81937 0.0588296 5.25111C-0.0105201 6.48598 0.000665408 7.70967 0.000665408 8.9423C0.000665408 10.1749 -0.0105201 11.4009 0.0588296 12.6335C0.128179 14.0652 0.454794 15.3359 1.50175 16.3828C2.55094 17.432 3.81937 17.7564 5.25111 17.8258C6.48598 17.8951 7.70966 17.8839 8.9423 17.8839C10.1772 17.8839 11.4009 17.8951 12.6335 17.8258C14.0652 17.7564 15.3359 17.4298 16.3828 16.3828C17.432 15.3337 17.7564 14.0652 17.8258 12.6335C17.8974 11.4009 17.8839 10.1772 17.8839 8.9423ZM8.94006 13.5306C6.40097 13.5306 4.3518 11.4814 4.3518 8.9423C4.3518 6.40321 6.40097 4.35404 8.94006 4.35404C11.4792 4.35404 13.5283 6.40321 13.5283 8.9423C13.5283 11.4814 11.4792 13.5306 8.94006 13.5306ZM13.7162 5.23768C13.1234 5.23768 12.6447 4.75895 12.6447 4.16612C12.6447 3.57329 13.1234 3.09456 13.7162 3.09456C14.3091 3.09456 14.7878 3.57329 14.7878 4.16612C14.788 4.30689 14.7604 4.44631 14.7066 4.5764C14.6528 4.70649 14.5739 4.82469 14.4743 4.92422C14.3748 5.02376 14.2566 5.10269 14.1265 5.15648C13.9964 5.21027 13.857 5.23786 13.7162 5.23768Z" fill="#E8E8E8"/>
</svg>
