<svg width="43" height="47" viewBox="0 0 43 47" fill="none" xmlns="http://www.w3.org/2000/svg">
<path d="M2.26303 10.4031H8.80929C9.18808 10.4031 9.48917 10.7042 9.48917 11.0829V17.6292C9.48917 18.008 9.18808 18.3091 8.80929 18.3091H2.26303C1.88424 18.3091 1.58315 18.008 1.58315 17.6292V11.0829C1.58315 10.7042 1.88424 10.4031 2.26303 10.4031ZM8.1197 11.7628H2.94291V16.9396H8.1197V11.7628ZM38.2869 9.1113L42.4342 12.1222C42.6867 12.3067 42.7741 12.6272 42.677 12.9089L41.0938 17.7749C40.9967 18.0566 40.7345 18.2411 40.4528 18.2411H35.3149C34.9944 18.2411 34.7321 18.0274 34.6544 17.7263L33.081 12.8798C32.9839 12.5981 33.1004 12.2873 33.3335 12.1222L37.4905 9.10159C37.7236 8.92676 38.0538 8.93647 38.2869 9.1113ZM39.5593 11.7143L37.879 10.4905L34.5184 12.9283L35.8005 16.8716H39.9575L41.2395 12.9283L39.5593 11.7143ZM31.5755 22.3301C31.8086 22.029 32.2263 21.9804 32.5274 22.2135C32.8285 22.4466 32.877 22.8643 32.6536 23.1654C31.8281 24.224 30.8471 25.1856 29.7593 25.982C29.4582 26.2054 29.0308 26.1374 28.8075 25.8266C28.5938 25.5255 28.6521 25.0982 28.9629 24.8748C29.9438 24.1463 30.8277 23.2916 31.5755 22.3301ZM26.3502 26.3414C26.6901 26.1957 27.098 26.3608 27.234 26.7007C27.3797 27.0407 27.2146 27.4486 26.8747 27.5846C25.3012 28.245 23.6598 28.6238 21.9795 28.7015C21.6007 28.721 21.2899 28.4296 21.2705 28.0605C21.2511 27.6817 21.5425 27.3709 21.9212 27.3515C23.4364 27.2835 24.9321 26.9338 26.3502 26.3414ZM18.9395 27.1475C19.3086 27.2155 19.5514 27.5652 19.4834 27.9342C19.4154 28.3033 19.0658 28.5461 18.6967 28.4781C15.6081 27.9148 12.7817 26.3414 10.6644 24.0201L10.7421 24.9331C10.7712 25.3118 10.4896 25.6324 10.1205 25.6615C9.7417 25.6906 9.42118 25.409 9.39205 25.0399L9.12981 21.8348C9.09096 21.3297 9.61544 20.9218 10.1302 21.184L12.9954 22.5438C13.3353 22.6992 13.481 23.1071 13.3159 23.447C13.1605 23.787 12.7526 23.9327 12.4127 23.7676L12.2281 23.6801C14.0638 25.477 16.4142 26.6813 18.9395 27.1475ZM31.8475 3.76939C31.8183 3.3906 32.1 3.07009 32.4691 3.04095C32.8479 3.01181 33.1684 3.29348 33.1975 3.66255L33.4598 6.8677C33.4986 7.37275 32.9741 7.78068 32.4594 7.51844L29.5942 6.15868C29.2542 6.00328 29.1085 5.59535 29.2737 5.25541C29.4291 4.91547 29.837 4.76979 30.1769 4.9349L30.3518 5.02231C28.5161 3.24491 26.1656 2.03084 23.6404 1.56464C23.2713 1.49665 23.0285 1.147 23.0965 0.777923C23.1645 0.408845 23.5141 0.166031 23.8832 0.234019C26.9621 0.797348 29.8079 2.39021 31.9155 4.7018L31.8475 3.76939ZM11.0043 6.37236C10.7712 6.67345 10.3536 6.72201 10.0525 6.48891C9.75141 6.25581 9.70285 5.83817 9.92624 5.53708C10.7518 4.47841 11.7425 3.51686 12.8206 2.72043C13.1217 2.49705 13.549 2.56503 13.7724 2.87584C13.9958 3.17692 13.9278 3.60428 13.617 3.82767C12.636 4.55611 11.7522 5.41081 11.0043 6.37236ZM16.2297 2.36107C15.8898 2.50676 15.4915 2.34164 15.3458 2.00171C15.2002 1.66177 15.3653 1.26355 15.7052 1.11786C17.2786 0.457408 18.9201 0.0786183 20.6003 0.000917794C20.9791 -0.0185073 21.2899 0.27287 21.3094 0.641947C21.3288 1.02074 21.0374 1.33154 20.6586 1.35096C19.1532 1.41895 17.6477 1.7686 16.2297 2.36107ZM21.2899 9.74262C23.8346 9.74262 25.9034 11.8114 25.9034 14.3561C25.9034 16.9008 23.8346 18.9695 21.2899 18.9695C18.7452 18.9695 16.6765 16.9008 16.6765 14.3561C16.6765 11.8114 18.7452 9.74262 21.2899 9.74262ZM23.5918 12.0542C22.3195 10.7819 20.2604 10.7819 18.9978 12.0542C17.7351 13.3266 17.7254 15.3856 18.9978 16.6482C20.2701 17.9206 22.3292 17.9206 23.5918 16.6482C24.8544 15.3759 24.8544 13.3168 23.5918 12.0542ZM19.8719 4.41042H22.6983C23.077 4.41042 23.3781 4.71151 23.3781 5.0903V6.39178C24.0969 6.58603 24.7865 6.8677 25.4275 7.24649L26.3502 6.32379C26.6124 6.06155 27.0495 6.06155 27.3117 6.32379L29.3222 8.32458C29.5845 8.58682 29.5845 9.02389 29.3222 9.28613L28.3995 10.2088C28.7686 10.8498 29.06 11.5394 29.2542 12.2582H30.5557C30.9345 12.2582 31.2356 12.5593 31.2356 12.938V15.7741C31.2356 16.1626 30.9248 16.4637 30.4974 16.454H29.2542C29.06 17.1727 28.7783 17.8623 28.3995 18.5033L29.3222 19.426C29.5845 19.6883 29.5845 20.1253 29.3222 20.3876L27.3214 22.3884C27.0592 22.6506 26.6221 22.6506 26.3599 22.3884L25.4372 21.4657C24.7962 21.8445 24.1066 22.1261 23.3878 22.3204V23.6219C23.3878 24.0007 23.0868 24.3017 22.708 24.3017H19.8816C19.5028 24.3017 19.2017 24.0007 19.2017 23.6219V22.3204C18.8618 22.233 18.4636 22.097 18.1431 21.961C17.8031 21.8153 17.4632 21.6502 17.1427 21.4657L16.22 22.3884C15.9577 22.6506 15.5207 22.6506 15.2584 22.3884L13.2576 20.3876C12.9954 20.1253 12.9954 19.6883 13.2576 19.426L14.1803 18.5033C13.8113 17.8623 13.5199 17.1727 13.3353 16.454H12.0339C11.6551 16.454 11.354 16.1529 11.354 15.7741V12.938C11.354 12.5593 11.6551 12.2582 12.0339 12.2582H13.3353C13.4228 11.9377 13.5587 11.5103 13.6947 11.1995C13.8404 10.8596 14.0055 10.5196 14.1901 10.1991L13.2674 9.27641C13.0051 9.01417 13.0051 8.58682 13.2674 8.31487L15.2681 6.31408C15.5304 6.05184 15.9675 6.05184 16.2297 6.31408L17.1524 7.23677C17.7934 6.85799 18.483 6.57632 19.2017 6.38207V5.0903C19.192 4.71151 19.5028 4.41042 19.8719 4.41042ZM22.0281 5.77018H20.5518V6.89684C20.5712 7.23677 20.3381 7.53786 19.9982 7.60585C19.532 7.69327 19.0852 7.82924 18.6578 8.00407C18.2402 8.17889 17.842 8.39257 17.4632 8.6451C17.2009 8.85877 16.8124 8.83935 16.5696 8.58682L15.7441 7.76125L14.7048 8.8005L15.5304 9.62606C15.7538 9.84945 15.7926 10.2185 15.6081 10.4905C15.3458 10.879 15.1225 11.2869 14.9476 11.724C14.7728 12.1416 14.6465 12.569 14.5591 13.0157C14.5203 13.3557 14.2386 13.6179 13.889 13.6179H12.7235V15.0942H13.889C14.2095 15.0942 14.4911 15.3273 14.5591 15.6479C14.6465 16.1141 14.7825 16.5608 14.9573 16.9882C15.1322 17.4058 15.3458 17.804 15.5984 18.1828C15.8023 18.4451 15.7829 18.8336 15.5401 19.0764L14.7145 19.902L15.7538 20.9412L16.5793 20.1156C16.8027 19.8922 17.1718 19.8534 17.4438 20.0379C17.8323 20.3002 18.2402 20.5236 18.6773 20.7081C19.0949 20.8829 19.5222 21.0092 19.969 21.0966C20.309 21.1355 20.5712 21.4268 20.5712 21.7668V22.9323H22.0475V21.7668C22.0475 21.4463 22.2806 21.1646 22.6011 21.0966C23.0673 21.0092 23.5141 20.8732 23.9415 20.6984C24.3591 20.5236 24.7573 20.3099 25.1361 20.0574C25.3983 19.8534 25.7868 19.8728 26.0297 20.1156L26.8552 20.9412L27.8945 19.902L27.0689 19.0764C26.8455 18.853 26.8067 18.4936 26.9912 18.212C27.5157 17.435 27.8848 16.5705 28.0596 15.6381C28.1179 15.3273 28.3995 15.0845 28.7298 15.0845H29.8953V13.6082H28.7298C28.4092 13.6082 28.1276 13.3848 28.0596 13.0546C27.9722 12.5884 27.8362 12.1416 27.6614 11.7143C27.4865 11.2966 27.2729 10.8984 27.0203 10.5196C26.8164 10.2574 26.8358 9.86888 27.0786 9.62606L27.9042 8.8005L26.8358 7.76125L26.0102 8.58682C25.7868 8.81992 25.4178 8.85877 25.1458 8.67423C24.7573 8.41199 24.3494 8.18861 23.9123 8.00407C23.4947 7.82924 23.0673 7.70298 22.6108 7.61556C22.2709 7.57671 22.0087 7.28534 22.0087 6.93569V5.77018H22.0281ZM1.55401 33.6938L5.19622 33.6647C5.94409 33.6647 6.5754 34.2377 6.70167 34.9661L15.0059 30.1876C15.0156 30.1778 15.035 30.1778 15.0448 30.1681C17.0844 29.1483 18.6967 29.1775 19.6777 29.7019C20.5129 30.1487 20.9694 30.984 20.8529 31.9164C20.7266 32.8779 19.9787 33.9269 18.5024 34.6262C17.1815 35.3449 15.9772 36.0345 15.103 36.5978C14.8214 36.7727 14.5883 36.9184 14.4037 37.0155C15.0642 37.0543 16.2977 37.1223 17.7643 37.2486C18.5607 37.3263 19.4057 37.3846 20.241 37.4428C21.018 37.2 21.8338 36.9184 22.5234 36.6561C23.349 36.3453 23.9609 36.1025 24.0483 36.0442L29.3902 32.266L29.4193 32.2466C30.8568 31.3239 32.7896 31.12 33.8094 32.0815C34.0814 32.334 34.2562 32.6545 34.3048 33.0236C35.7131 32.4991 37.4419 32.6254 38.2286 33.6452C38.4715 33.956 38.588 34.3154 38.5686 34.7136C38.5297 35.3158 38.1509 35.9665 37.2962 36.559C36.8009 36.8989 35.9462 37.5108 34.9555 38.2101C31.0608 40.9782 24.9904 45.2809 22.7177 45.9413C22.6788 45.951 22.64 45.9608 22.6011 45.9608C20.9694 46.1356 10.0719 46.0773 6.54627 46.1259C6.29374 46.6406 5.75955 46.9612 5.16708 46.9709L1.52487 47C0.679879 47 0 46.2716 0 45.446C0.0291377 42.0369 0.00971278 38.6181 0.00971278 35.209C0.0194253 34.3542 0.709017 33.7035 1.55401 33.6938ZM5.18651 35.0244L1.55401 35.0536C1.45688 35.0536 1.36947 35.1118 1.36947 35.209C1.35976 38.5404 1.22378 42.1534 1.35976 45.446C1.35976 45.5431 1.44717 45.65 1.53458 45.65C2.73894 45.65 3.95301 45.6305 5.16708 45.6208C5.27392 45.6208 5.35162 45.5625 5.35162 45.446L5.36133 36.1316V35.2284C5.36133 35.141 5.28363 35.0244 5.18651 35.0244ZM23.8735 37.5982C24.5631 37.5982 26.02 37.5885 26.3113 37.4234L32.5856 33.9172C32.8673 33.6258 32.9839 33.3927 32.9644 33.2276C32.9256 32.8197 31.5755 32.4797 30.1575 33.3927L24.835 37.1515C24.7185 37.2389 24.3688 37.404 23.8735 37.5982ZM15.6469 31.3822L6.72109 36.5104L6.71138 44.7661C9.68342 44.7273 21.6784 44.7564 22.4166 44.6107C24.5145 43.96 30.3906 39.7836 34.1882 37.0932C35.0818 36.4619 35.8491 35.9083 36.5484 35.4323C37.2282 34.9661 37.5196 34.5194 36.83 34.228C36.2667 33.9755 35.3634 33.9949 34.431 34.4417L26.9912 38.5986C25.7286 39.3077 19.3863 38.754 17.6671 38.5986C15.8897 38.4335 14.3163 38.2004 13.4422 37.9479C13.413 37.9576 13.3742 37.9576 13.3353 37.9576C12.9566 37.9673 12.6458 37.6662 12.6458 37.2971C12.636 36.7921 13.3062 36.1608 14.394 35.4518C15.2876 34.869 16.5211 34.16 17.8808 33.4218C17.9003 33.4121 17.9197 33.3927 17.9488 33.383C18.9686 32.8974 19.4737 32.266 19.5417 31.7319C19.5902 31.3531 19.4057 31.0617 19.0755 30.8869C18.3956 30.5566 17.2398 30.5955 15.6469 31.3822Z" fill="url(#paint0_linear_469_328)"/>
<defs>
<linearGradient id="paint0_linear_469_328" x1="21.3578" y1="0" x2="21.3578" y2="47" gradientUnits="userSpaceOnUse">
<stop stop-color="#00B3FF"/>
<stop offset="1" stop-color="#1C74BC"/>
</linearGradient>
</defs>
</svg>
