<svg width="42" height="47" viewBox="0 0 42 47" fill="none" xmlns="http://www.w3.org/2000/svg">
<path d="M33.7156 19.3754C33.795 18.4775 33.5978 17.589 33.1457 16.8058C32.6936 16.0227 32.0225 15.4077 31.2053 15.0274C30.5172 14.707 30.0271 14.2169 29.7069 13.5288C29.3265 12.7116 28.7115 12.0406 27.9284 11.5885C27.1453 11.1364 26.2567 10.939 25.3588 11.0185C24.6034 11.0852 23.9332 10.9058 23.3117 10.47C22.5736 9.95249 21.7056 9.67889 20.8014 9.67889C19.8972 9.67889 19.0292 9.95249 18.2911 10.47C17.6698 10.9056 17.0002 11.085 16.2441 11.0185C15.3459 10.9392 14.4576 11.1364 13.6744 11.5884C12.8915 12.0405 12.2764 12.7115 11.896 13.5288C11.5757 14.2168 11.0856 14.707 10.3975 15.0273C9.58031 15.4077 8.90944 16.0226 8.45716 16.8058C8.00506 17.5888 7.80793 18.4773 7.88719 19.3753C7.95387 20.1314 7.77445 20.801 7.33867 21.4224C6.82111 22.1603 6.5476 23.0283 6.5476 23.9328C6.5476 24.8372 6.82121 25.705 7.33867 26.4431C7.77445 27.0645 7.95387 27.7341 7.88719 28.4902C7.80793 29.3882 8.00516 30.2767 8.45716 31.0597C8.90944 31.8428 9.58031 32.4578 10.3975 32.8381C10.5688 32.9175 10.7328 33.0114 10.8879 33.119L7.95191 44.0766C7.92378 44.1817 7.92684 44.2926 7.96074 44.3959C7.99464 44.4992 8.05789 44.5904 8.14277 44.6583C8.22766 44.7262 8.33049 44.768 8.43871 44.7784C8.54692 44.7888 8.65583 44.7675 8.75212 44.717L13.4585 42.2505L16.3008 46.7398C16.359 46.8316 16.4427 46.9046 16.5416 46.9496C16.6405 46.9947 16.7505 47.01 16.8579 46.9936C16.9654 46.9772 17.0658 46.9299 17.1468 46.8573C17.2278 46.7848 17.2859 46.6903 17.314 46.5853L19.6087 38.0218C19.9932 38.1305 20.3936 38.1866 20.8015 38.1866C21.2094 38.1866 21.6097 38.1305 21.9943 38.0218L24.2888 46.5853C24.3207 46.7043 24.3909 46.8094 24.4887 46.8844C24.5864 46.9594 24.7062 47 24.8294 47C24.9237 46.9999 25.0165 46.9761 25.0991 46.9306C25.1817 46.8851 25.2515 46.8195 25.302 46.7398L28.1445 42.2505L32.8508 44.717C32.9471 44.7675 33.056 44.7888 33.1642 44.7784C33.2724 44.768 33.3753 44.7262 33.4602 44.6583C33.545 44.5904 33.6083 44.4992 33.6422 44.3959C33.6761 44.2926 33.6792 44.1817 33.651 44.0766L30.715 33.119C30.8701 33.0115 31.0343 32.9175 31.2055 32.8381C32.0226 32.4578 32.6935 31.8428 33.1458 31.0597C33.598 30.2765 33.7951 29.388 33.7157 28.4902C33.6491 27.7341 33.8285 27.0645 34.2643 26.4432C34.7819 25.7051 35.0554 24.837 35.0554 23.9328C35.0554 23.0285 34.7818 22.1604 34.2643 21.4225C33.8285 20.801 33.6491 20.1314 33.7157 19.3754H33.7156ZM16.5634 45.0628L14.1279 41.2164C14.0528 41.0977 13.9357 41.0116 13.8 40.9753C13.6643 40.9389 13.5199 40.9549 13.3955 41.0201L9.36312 43.1335L11.7803 34.1124C11.8207 34.185 11.8598 34.2592 11.8959 34.3369C12.2763 35.1541 12.8913 35.8251 13.6743 36.2772C14.4574 36.7292 15.345 36.9266 16.2441 36.8471C17.0004 36.7806 17.6696 36.9599 18.2911 37.3956C18.3816 37.4591 18.4745 37.5192 18.5696 37.5756L16.5634 45.0628ZM28.2071 41.0201C28.0827 40.9549 27.9383 40.9389 27.8026 40.9753C27.6669 41.0116 27.5499 41.0977 27.4747 41.2164L25.0392 45.0628L23.0331 37.5756C23.1282 37.5191 23.2211 37.459 23.3117 37.3955C23.9332 36.9597 24.6031 36.7805 25.3588 36.847C26.257 36.9263 27.1453 36.7291 27.9284 36.277C28.7115 35.8249 29.3264 35.1539 29.7069 34.3366C29.7429 34.259 29.782 34.1847 29.8225 34.1122L32.2396 43.1334L28.2072 41.0201L28.2071 41.0201ZM33.3479 25.8006C32.7545 26.6469 32.5102 27.5588 32.6009 28.5886C32.6598 29.2562 32.5131 29.9172 32.1764 30.5003C31.8398 31.0832 31.3407 31.5409 30.733 31.8237C29.7958 32.26 29.1283 32.9275 28.6922 33.8645C28.4092 34.4722 27.9516 34.9714 27.3687 35.308C26.7857 35.6444 26.1244 35.7911 25.457 35.7325C24.4273 35.6415 23.5154 35.886 22.6691 36.4794C22.1202 36.8643 21.4743 37.0678 20.8012 37.0678C20.1281 37.0678 19.4821 36.8643 18.9334 36.4795C18.2015 35.9662 17.4204 35.7141 16.5565 35.7141C16.4217 35.7141 16.2847 35.7202 16.1456 35.7326C15.4782 35.7913 14.8168 35.6446 14.2338 35.3082C13.6508 34.9715 13.1932 34.4724 12.9103 33.8648C12.4742 32.9277 11.8067 32.2601 10.8695 31.8239C10.2618 31.5411 9.76272 31.0834 9.42607 30.5004C9.08952 29.9176 8.94273 29.2565 9.00158 28.5887C9.09241 27.559 8.84808 26.6472 8.25461 25.8009C7.86975 25.252 7.66627 24.6061 7.66627 23.933C7.66627 23.2599 7.86966 22.6139 8.25452 22.0652C8.84799 21.2189 9.09231 20.3069 9.00158 19.2773C8.94273 18.6095 9.08942 17.9485 9.42607 17.3656C9.76262 16.7826 10.2618 16.3249 10.8695 16.0421C11.8066 15.6059 12.4742 14.9384 12.9103 14.0013C13.1932 13.3935 13.6508 12.8944 14.2338 12.5578C14.8168 12.2214 15.4782 12.0746 16.1456 12.1333C17.1756 12.2245 18.0872 11.9797 18.9334 11.3863C19.4823 11.0014 20.1282 10.798 20.8013 10.798C21.4744 10.798 22.1204 11.0014 22.6691 11.3863C23.5153 11.9798 24.4267 12.2244 25.457 12.1333C26.1243 12.0743 26.7857 12.2212 27.3687 12.5578C27.9516 12.8944 28.4093 13.3935 28.6922 14.0012C29.1283 14.9382 29.7958 15.6059 30.7329 16.0421C31.3407 16.3249 31.8398 16.7826 32.1764 17.3655C32.5131 17.9485 32.6598 18.6095 32.6009 19.2772C32.5101 20.3069 32.7544 21.2188 33.3479 22.0652C33.7328 22.614 33.9363 23.2598 33.9363 23.9329C33.9363 24.606 33.7328 25.252 33.3479 25.8008V25.8006ZM20.8013 14.5457C15.6252 14.5457 11.4142 18.7568 11.4142 23.9328C11.4142 29.1089 15.6252 33.32 20.8013 33.32C25.9773 33.32 30.1884 29.1089 30.1884 23.9328C30.1884 18.7568 25.9773 14.5457 20.8013 14.5457ZM20.8013 32.2009C18.3083 32.2009 16.0695 31.0919 14.5523 29.3413C14.9224 27.7188 16.5932 26.5333 19.0951 26.1294C19.6169 26.3622 20.194 26.4928 20.8013 26.4928C21.4086 26.4928 21.9857 26.3622 22.5075 26.1294C25.0093 26.5333 26.6801 27.7188 27.0502 29.3413C25.533 31.0919 23.2942 32.2009 20.8013 32.2009ZM20.8013 25.3738C19.1015 25.3738 17.7187 23.991 17.7187 22.2913C17.7187 20.5916 19.1015 19.2088 20.8013 19.2088C22.501 19.2088 23.8838 20.5916 23.8838 22.2913C23.8838 23.991 22.501 25.3738 20.8013 25.3738ZM27.8521 28.2466C27.1983 26.8474 25.7657 25.7941 23.7742 25.2572C24.5329 24.4968 25.0027 23.4479 25.0027 22.2914C25.0027 19.9747 23.1179 18.0898 20.8012 18.0898C18.4845 18.0898 16.5995 19.9746 16.5995 22.2914C16.5995 23.4479 17.0693 24.4968 17.8281 25.2572C15.8366 25.7941 14.404 26.8474 13.7503 28.2466C12.9787 26.99 12.5331 25.5126 12.5331 23.9329C12.5331 19.3738 16.2421 15.6649 20.8012 15.6649C25.3603 15.6649 29.0693 19.3738 29.0693 23.9329C29.0693 25.5126 28.6237 26.99 27.852 28.2467L27.8521 28.2466ZM16.4896 3.85704L18.4177 5.48796L17.8165 7.94073C17.79 8.04866 17.7963 8.16204 17.8345 8.2664C17.8727 8.37077 17.9411 8.46139 18.031 8.52671C18.1209 8.59204 18.2282 8.6291 18.3393 8.63317C18.4504 8.63724 18.5601 8.60814 18.6546 8.54958L20.8015 7.21987L22.9484 8.54958C23.0428 8.60816 23.1525 8.63726 23.2636 8.63316C23.3746 8.62906 23.4819 8.59194 23.5718 8.52655C23.6617 8.46124 23.7301 8.37065 23.7683 8.26632C23.8065 8.16199 23.8128 8.04864 23.7863 7.94073L23.1851 5.48796L25.1133 3.85704C25.1981 3.78525 25.2596 3.68986 25.29 3.583C25.3204 3.47615 25.3182 3.36267 25.2839 3.25702C25.2496 3.15138 25.1846 3.05834 25.0972 2.98975C25.0098 2.92117 24.904 2.88015 24.7932 2.87191L22.2747 2.68568L21.3193 0.347987C21.2773 0.245099 21.2056 0.157053 21.1134 0.0950758C21.0211 0.0330989 20.9125 0 20.8014 0C20.6902 0 20.5816 0.0330989 20.4894 0.0950758C20.3971 0.157053 20.3254 0.245099 20.2834 0.347987L19.3281 2.68568L16.8096 2.87191C16.6988 2.88006 16.5929 2.92103 16.5055 2.98961C16.418 3.05818 16.353 3.15124 16.3186 3.25693C16.2843 3.36262 16.2822 3.47614 16.3126 3.58302C16.3431 3.6899 16.4046 3.78529 16.4895 3.85704H16.4896ZM19.7563 3.7761C19.8601 3.76846 19.9597 3.732 20.0439 3.6708C20.1281 3.60961 20.1936 3.52613 20.2329 3.42975L20.8014 2.03868L21.3699 3.42975C21.4093 3.5261 21.4748 3.60957 21.559 3.67075C21.6432 3.73194 21.7428 3.76842 21.8466 3.7761L23.3452 3.88688L22.1978 4.85738C22.1183 4.9246 22.0592 5.01266 22.027 5.11166C21.9949 5.21065 21.9909 5.31665 22.0157 5.41774L22.3734 6.87726L21.096 6.08609C21.0075 6.03127 20.9055 6.00223 20.8014 6.00223C20.6973 6.00223 20.5953 6.03127 20.5068 6.08609L19.2293 6.87726L19.587 5.41774C19.6118 5.31665 19.6079 5.21065 19.5757 5.11166C19.5436 5.01266 19.4844 4.9246 19.405 4.85738L18.2577 3.88688L19.7563 3.7761ZM7.02926 8.70261L9.51447 9.15098L10.2202 11.5758C10.2513 11.6824 10.3134 11.7774 10.3987 11.8486C10.4839 11.9199 10.5885 11.9641 10.6989 11.9757C10.8094 11.9873 10.9209 11.9658 11.0191 11.9139C11.1173 11.862 11.1978 11.782 11.2504 11.6841L12.4449 9.45899L14.9691 9.53714C15.0801 9.54058 15.1897 9.51086 15.2838 9.45179C15.378 9.39272 15.4523 9.30697 15.4975 9.20545C15.5427 9.10394 15.5567 8.99127 15.5376 8.88181C15.5185 8.77234 15.4673 8.67103 15.3904 8.5908L13.6434 6.76731L14.4977 4.39083C14.5353 4.28626 14.5409 4.17287 14.5138 4.06511C14.4867 3.95734 14.4281 3.86009 14.3456 3.78573C14.263 3.71138 14.1601 3.6633 14.0501 3.64761C13.9401 3.63193 13.8279 3.64936 13.7279 3.69767L11.4536 4.79573L9.4574 3.24893C9.36957 3.1809 9.26347 3.14056 9.15263 3.13305C9.04179 3.12554 8.93122 3.15119 8.83501 3.20674C8.7388 3.26229 8.6613 3.34523 8.6124 3.44498C8.56349 3.54473 8.54539 3.65679 8.56039 3.76686L8.90198 6.26905L6.81384 7.6895C6.72198 7.75201 6.65082 7.84045 6.60941 7.94355C6.568 8.04666 6.55823 8.15975 6.58134 8.26843C6.60444 8.37711 6.65938 8.47645 6.73915 8.55379C6.81892 8.63113 6.91991 8.68288 7.02926 8.70261ZM9.81792 6.99914C9.90399 6.9406 9.97201 6.85921 10.0143 6.76412C10.0567 6.66902 10.0716 6.564 10.0575 6.46088L9.8542 4.97198L11.0421 5.8924C11.1243 5.95613 11.2228 5.99566 11.3263 6.00655C11.4298 6.01744 11.5342 5.99926 11.628 5.95404L12.9813 5.30061L12.473 6.71481C12.4377 6.81277 12.4306 6.91862 12.4522 7.02044C12.4739 7.12227 12.5235 7.21604 12.5955 7.29121L13.635 8.37631L12.133 8.32978C12.0291 8.32685 11.9263 8.35284 11.8362 8.40485C11.7461 8.45686 11.6722 8.53285 11.6228 8.62437L10.912 9.94848L10.492 8.50556C10.4629 8.40563 10.4065 8.31578 10.3291 8.24613C10.2518 8.17648 10.1566 8.12978 10.0541 8.11129L8.57531 7.84449L9.81783 6.99923L9.81792 6.99914ZM8.55265 14.3819C8.65057 14.3293 8.73063 14.2488 8.78261 14.1506C8.8346 14.0524 8.85616 13.9409 8.84454 13.8304C8.83293 13.7199 8.78867 13.6153 8.7174 13.53C8.64613 13.4448 8.55109 13.3826 8.44438 13.3516L6.01959 12.6459L5.57114 10.1606C5.55147 10.0512 5.49966 9.95019 5.42232 9.87037C5.34498 9.79055 5.24561 9.73558 5.1369 9.71248C5.02818 9.68937 4.91504 9.69918 4.81193 9.74065C4.70881 9.78212 4.62038 9.85337 4.55793 9.94531L3.13758 12.0334L0.635297 11.6918C0.525189 11.6767 0.413087 11.6948 0.313287 11.7437C0.213488 11.7926 0.130514 11.8701 0.0749472 11.9663C0.0193806 12.0626 -0.00626025 12.1732 0.00129429 12.2841C0.00884884 12.3949 0.0492564 12.5011 0.117364 12.5889L1.66426 14.5851L0.566195 16.8593C0.517896 16.9593 0.500478 17.0715 0.51616 17.1815C0.531843 17.2915 0.579916 17.3943 0.654254 17.4769C0.728592 17.5594 0.825829 17.618 0.933576 17.6451C1.04132 17.6722 1.1547 17.6666 1.25926 17.6291L3.63574 16.7748L5.45942 18.5219C5.53963 18.5988 5.64095 18.6501 5.75044 18.6692C5.85993 18.6883 5.97263 18.6744 6.07417 18.6292C6.1757 18.584 6.26146 18.5095 6.3205 18.4153C6.37955 18.3212 6.40919 18.2116 6.40567 18.1005L6.32752 15.5763L8.55265 14.3819ZM5.4929 14.7542C5.4012 14.8035 5.32505 14.8773 5.273 14.9675C5.22096 15.0576 5.1951 15.1605 5.19831 15.2645L5.24484 16.7665L4.15964 15.7269C4.08449 15.6549 3.99074 15.6053 3.88895 15.5837C3.78716 15.5621 3.68136 15.5692 3.58343 15.6044L2.16923 16.1128L2.82266 14.7595C2.8679 14.6658 2.8861 14.5613 2.87521 14.4578C2.86433 14.3543 2.82478 14.2558 2.76102 14.1735L1.8406 12.9858L3.32959 13.189C3.43272 13.203 3.53773 13.188 3.63281 13.1457C3.72789 13.1034 3.80929 13.0353 3.86785 12.9493L4.71301 11.7069L4.97981 13.1857C4.9983 13.2881 5.045 13.3834 5.11465 13.4607C5.18431 13.5381 5.27415 13.5944 5.37409 13.6235L6.81701 14.0435L5.4929 14.7542ZM26.6336 9.53705L29.1577 9.4589L30.3522 11.684C30.4047 11.7819 30.4853 11.8619 30.5835 11.9139C30.6817 11.9659 30.7931 11.9874 30.9036 11.9758C31.0141 11.9641 31.1187 11.9199 31.2039 11.8486C31.2892 11.7774 31.3513 11.6824 31.3823 11.5757L32.0881 9.15088L34.5733 8.70252C34.6826 8.68274 34.7836 8.63088 34.8633 8.55354C34.9431 8.4762 34.998 8.37687 35.0211 8.26821C35.0442 8.15956 35.0344 8.04648 34.993 7.94339C34.9517 7.84029 34.8805 7.75185 34.7887 7.68931L32.7007 6.26887L33.0422 3.76668C33.0572 3.6566 33.0391 3.54455 32.9902 3.44479C32.9413 3.34504 32.8638 3.26211 32.7676 3.20655C32.6713 3.151 32.5608 3.12535 32.4499 3.13286C32.3391 3.14038 32.233 3.18072 32.1452 3.24874L30.149 4.79555L27.8747 3.69748C27.7746 3.64917 27.6624 3.63174 27.5524 3.64743C27.4424 3.66311 27.3396 3.71119 27.257 3.78555C27.1744 3.8599 27.1159 3.95716 27.0888 4.06492C27.0617 4.17268 27.0673 4.28607 27.1049 4.39064L27.9593 6.76712L26.2123 8.59061C26.1353 8.67082 26.0841 8.77213 26.065 8.8816C26.0459 8.99107 26.0599 9.10375 26.1051 9.20525C26.1974 9.41283 26.404 9.54283 26.6336 9.53705ZM29.1297 6.71472L28.6213 5.30052L29.9746 5.95395C30.0683 5.99919 30.1728 6.0174 30.2763 6.00651C30.3798 5.99562 30.4782 5.95607 30.5605 5.89231L31.7484 4.9718L31.5451 6.46069C31.531 6.56382 31.546 6.66884 31.5883 6.76392C31.6307 6.85901 31.6987 6.94041 31.7847 6.99895L33.0272 7.84421L31.5483 8.11101C31.4459 8.12948 31.3506 8.17617 31.2733 8.24582C31.196 8.31548 31.1396 8.40534 31.1105 8.50528L30.6905 9.9482L29.9798 8.62418C29.932 8.53508 29.8609 8.46061 29.7741 8.40869C29.6873 8.35677 29.5881 8.32934 29.487 8.32931C29.4812 8.32931 29.4754 8.32931 29.4695 8.32959L27.9676 8.37613L29.0071 7.29102C29.0791 7.21585 29.1287 7.12208 29.1504 7.02026C29.172 6.91843 29.1648 6.81259 29.1296 6.71462L29.1297 6.71472ZM41.5276 11.9663C41.472 11.8701 41.3891 11.7926 41.2893 11.7437C41.1895 11.6948 41.0775 11.6767 40.9674 11.6917L38.4652 12.0333L37.0447 9.94522C36.9822 9.85339 36.8938 9.78224 36.7907 9.74082C36.6876 9.69941 36.5745 9.6896 36.4658 9.71264C36.3571 9.73572 36.2578 9.79065 36.1804 9.87042C36.1031 9.95019 36.0512 10.0512 36.0315 10.1605L35.5831 12.6458L33.1583 13.3515C33.0516 13.3826 32.9565 13.4447 32.8853 13.5299C32.814 13.6152 32.7697 13.7198 32.7581 13.8303C32.7465 13.9408 32.7681 14.0523 32.82 14.1505C32.872 14.2487 32.9521 14.3292 33.05 14.3818L35.275 15.5762L35.1969 18.1004C35.1935 18.2114 35.2232 18.321 35.2822 18.4151C35.3413 18.5092 35.427 18.5836 35.5285 18.6288C35.63 18.674 35.7427 18.688 35.8521 18.6689C35.9616 18.6498 36.0629 18.5986 36.1431 18.5218L37.9668 16.7747L40.3433 17.629C40.4479 17.6666 40.5613 17.6722 40.669 17.6451C40.7768 17.618 40.8741 17.5595 40.9484 17.4769C41.0228 17.3943 41.0708 17.2914 41.0865 17.1814C41.1022 17.0714 41.0847 16.9592 41.0364 16.8592L39.9383 14.585L41.4852 12.5888C41.5533 12.501 41.5937 12.3949 41.6012 12.284C41.6087 12.1731 41.5831 12.0625 41.5275 11.9663H41.5276ZM38.78 14.7595L39.4334 16.1127L38.0192 15.6043C37.9213 15.5691 37.8155 15.5619 37.7136 15.5835C37.6118 15.6052 37.5181 15.6548 37.4429 15.7268L36.3577 16.7664L36.4043 15.2644C36.4075 15.1604 36.3816 15.0575 36.3296 14.9674C36.2775 14.8772 36.2014 14.8034 36.1097 14.7541L34.7856 14.0434L36.2286 13.6234C36.3285 13.5943 36.4183 13.538 36.488 13.4606C36.5576 13.3833 36.6043 13.288 36.6228 13.1856L36.8896 11.7068L37.7349 12.9493C37.7935 13.0353 37.8749 13.1033 37.97 13.1456C38.065 13.188 38.17 13.203 38.2732 13.189L39.7621 12.9858L38.8416 14.1735C38.7779 14.2558 38.7383 14.3542 38.7274 14.4578C38.7165 14.5613 38.7347 14.6658 38.78 14.7595V14.7595Z" fill="url(#paint0_linear_469_323)"/>
<defs>
<linearGradient id="paint0_linear_469_323" x1="20.8012" y1="0" x2="20.8012" y2="47" gradientUnits="userSpaceOnUse">
<stop stop-color="#00B3FF"/>
<stop offset="1" stop-color="#1C74BC"/>
</linearGradient>
</defs>
</svg>
