<svg width="47" height="47" viewBox="0 0 47 47" fill="none" xmlns="http://www.w3.org/2000/svg">
<path d="M45.0526 19.3901C45.5204 19.4659 45.951 19.6912 46.28 20.0322C46.609 20.3733 46.8187 20.8117 46.8778 21.2818C47.0391 22.7445 47.0407 24.2203 46.8825 25.6833C46.8289 26.1606 46.621 26.6073 46.2905 26.9558C45.96 27.3043 45.5248 27.5354 45.0511 27.6142L42.5586 28.0223C42.08 30.0605 41.2723 32.0071 40.1671 33.7852L41.6342 35.8344C42.2188 36.6271 42.2047 37.7119 41.5997 38.4891C41.1328 39.0604 40.636 39.6067 40.1114 40.1256C39.6304 40.6073 39.0986 41.0914 38.4602 41.6279C38.0848 41.9166 37.6259 42.0756 37.1524 42.0811C36.6789 42.0866 36.2164 41.9383 35.8345 41.6585L33.7751 40.1812C31.9987 41.2862 30.0541 42.0942 28.0177 42.5734L27.6087 45.0699C27.5331 45.5378 27.3078 45.9685 26.9668 46.2977C26.6258 46.6269 26.1873 46.8367 25.717 46.8958C25.2661 46.9465 24.8136 46.9812 24.3603 47H24.2937C23.8855 46.9997 23.4929 46.8426 23.1971 46.5613C23.0449 46.4159 22.9239 46.241 22.8413 46.0474C22.7588 45.8538 22.7165 45.6454 22.7169 45.4349V39.1573C22.7216 38.3185 23.3837 37.6308 24.2217 37.5946C31.7192 37.2031 37.5976 31.0098 37.5976 23.5021C37.5976 15.9944 31.7192 9.80116 24.2217 9.40971C23.3824 9.3729 22.7199 8.68326 22.7169 7.84305V1.56864C22.7163 1.35793 22.7587 1.14931 22.8414 0.955515C22.9241 0.761717 23.0454 0.586806 23.1979 0.44146C23.3502 0.292091 23.5317 0.175916 23.7312 0.100273C23.9306 0.0246308 24.1435 -0.00883581 24.3565 0.00198761C24.8124 0.0200058 25.2644 0.0528715 25.7281 0.0998888C26.198 0.160444 26.6355 0.372132 26.9746 0.703036C27.3138 1.03394 27.5361 1.46612 27.6081 1.93442L28.0162 4.4285C30.0526 4.90809 31.9973 5.71638 33.7737 6.82159L35.833 5.34735C36.2184 5.06549 36.6853 4.91711 37.1627 4.92475C37.6401 4.93238 38.102 5.09561 38.4783 5.38965C39.0462 5.85454 39.5898 6.34845 40.1068 6.86938C40.6396 7.39028 41.1413 7.94217 41.6092 8.52218C41.9001 8.89802 42.0611 9.35822 42.0679 9.83347C42.0746 10.3087 41.9269 10.7733 41.6467 11.1573L40.1702 13.219C41.2744 14.9971 42.0811 16.9434 42.5586 18.9812L45.0526 19.3901ZM41.1415 19.8271C40.686 17.6147 39.8124 15.5096 38.5674 13.6248C38.4803 13.4924 38.4354 13.3367 38.4386 13.1782C38.4418 13.0198 38.493 12.866 38.5854 12.7373L40.3722 10.2424C40.4527 10.1362 40.4972 10.0071 40.4993 9.8738C40.5014 9.74054 40.461 9.61007 40.3839 9.50134C39.9545 8.96921 39.4939 8.46306 39.0045 7.98558C38.5291 7.50533 38.0297 7.04937 37.5084 6.61944C37.3992 6.53622 37.2657 6.49115 37.1284 6.49115C36.9912 6.49115 36.8577 6.53622 36.7485 6.61944L34.2575 8.40703C34.1286 8.49923 33.9748 8.55017 33.8163 8.55311C33.6579 8.55605 33.5022 8.51086 33.37 8.4235C31.4868 7.17806 29.3829 6.3041 27.1715 5.84868C27.0162 5.81667 26.8743 5.73828 26.7645 5.62386C26.6547 5.50945 26.5822 5.36441 26.5566 5.20792L26.0639 2.19131C26.0467 2.05951 25.9876 1.93671 25.8954 1.84097C25.8031 1.74523 25.6826 1.6816 25.5516 1.65943C25.1299 1.6156 24.707 1.58529 24.2834 1.56856L24.3006 7.84375C32.6402 8.26969 39.1822 15.1581 39.1776 23.5086C39.173 31.8592 32.6234 38.7404 24.2834 39.1571L24.2943 45.4347C24.7115 45.4174 25.128 45.3853 25.5429 45.3384C25.6746 45.3191 25.7964 45.2577 25.8902 45.1634C25.984 45.069 26.0446 44.9468 26.0631 44.8151L26.5566 41.7969C26.5822 41.6404 26.6547 41.4954 26.7645 41.381C26.8743 41.2666 27.0162 41.1882 27.1715 41.1561C29.3829 40.7004 31.4868 39.8262 33.37 38.5806C33.5023 38.4933 33.658 38.4482 33.8164 38.4513C33.9749 38.4544 34.1287 38.5055 34.2575 38.5978L36.7508 40.3869C36.8544 40.4675 36.9811 40.5128 37.1123 40.5164C37.2435 40.5199 37.3724 40.4814 37.4801 40.4065C38.0559 39.9216 38.5549 39.4665 39.0045 39.0176C39.4848 38.5431 39.9405 38.0442 40.3699 37.523C40.4521 37.4132 40.4966 37.2796 40.4966 37.1423C40.4966 37.0051 40.4521 36.8715 40.3699 36.7616L38.5847 34.2691C38.4923 34.1403 38.4413 33.9865 38.4382 33.828C38.4351 33.6696 38.4802 33.5139 38.5674 33.3816C39.8125 31.4971 40.6861 29.3922 41.1415 27.18C41.1734 27.0248 41.2517 26.883 41.366 26.7732C41.4802 26.6634 41.6251 26.5908 41.7815 26.5651L44.7973 26.0708C44.9339 26.0482 45.0594 25.9815 45.1545 25.881C45.2497 25.7804 45.3094 25.6515 45.3245 25.5138C45.4712 24.1665 45.4696 22.8071 45.3197 21.4601C45.3008 21.3284 45.2396 21.2063 45.1454 21.1123C45.0512 21.0182 44.9291 20.9572 44.7973 20.9385L41.7823 20.4449C41.6254 20.4192 41.48 20.3464 41.3655 20.236C41.251 20.1256 41.1729 19.983 41.1415 19.8271Z" fill="url(#paint0_linear_469_325)"/>
<path d="M2.35055 21.1514C2.83485 21.1535 3.3067 21.305 3.70155 21.5855C4.09641 21.8659 4.39498 22.2615 4.55643 22.7181H22.717V20.3681H10.1838C8.88596 20.3681 7.83387 19.316 7.83387 18.0181V13.9574C6.75479 13.5759 6.10753 12.4725 6.30109 11.3445C6.49465 10.2164 7.47274 9.39185 8.61724 9.39185C9.76174 9.39185 10.7398 10.2164 10.9334 11.3445C11.1269 12.4725 10.4797 13.5759 9.4006 13.9574V18.0181C9.4006 18.4507 9.7513 18.8015 10.184 18.8015H22.717V16.4515H14.1005C13.6679 16.4515 13.3172 16.1008 13.3172 15.6681C13.3172 15.2355 13.6679 14.8848 14.1005 14.8848H22.717V13.3181H18.0171C16.7192 13.3181 15.6671 12.266 15.6671 10.9681V6.12415C14.588 5.74267 13.9407 4.63923 14.1343 3.5112C14.3278 2.38318 15.3059 1.55859 16.4504 1.55859C17.5949 1.55859 18.573 2.38318 18.7666 3.5112C18.9601 4.63923 18.3129 5.74267 17.2338 6.12415V10.9682C17.2338 11.4008 17.5845 11.7516 18.0171 11.7516H22.9239C23.0558 11.5064 23.2557 11.3044 23.4995 11.17C23.7434 11.0355 24.0208 10.9742 24.2986 10.9934C30.8997 11.4115 36.0396 16.8872 36.0396 23.5015C36.0396 30.1158 30.8997 35.5916 24.2986 36.0097H24.207C23.9444 36.0119 23.6861 35.9424 23.4601 35.8088C23.234 35.6752 23.0486 35.4825 22.9239 35.2515H18.0171C17.5846 35.2515 17.2338 35.6021 17.2338 36.0348V40.8789C18.3129 41.2604 18.9601 42.3638 18.7666 43.4919C18.573 44.6199 17.5949 45.4445 16.4504 45.4445C15.3059 45.4445 14.3278 44.6199 14.1343 43.4919C13.9407 42.3638 14.588 41.2604 15.6671 40.8789V36.0348C15.6671 34.737 16.7191 33.6848 18.0171 33.6848H22.717V32.1182H14.1005C13.6679 32.1182 13.3172 31.7675 13.3172 31.3349C13.3172 30.9023 13.6679 30.5515 14.1005 30.5515H22.717V28.2016H10.1838C9.75122 28.2016 9.40045 28.5523 9.40045 28.9848V33.0456C10.4795 33.4271 11.1268 34.5305 10.9332 35.6585C10.7397 36.7866 9.76158 37.6111 8.61708 37.6111C7.47258 37.6111 6.4945 36.7866 6.30094 35.6585C6.10738 34.5305 6.75464 33.4271 7.83372 33.0456V28.9848C7.83372 27.687 8.88581 26.6349 10.1837 26.6349H22.717V24.2847H4.55643C4.15616 25.4085 2.97632 26.0529 1.81442 25.7824C0.652596 25.5119 -0.121334 24.4126 0.0158501 23.2276C0.153114 22.0428 1.15772 21.1494 2.35055 21.1514ZM8.61716 10.9682C8.18457 10.9682 7.83387 11.3189 7.83387 11.7516C7.83387 12.1843 8.18457 12.535 8.61716 12.535C9.04975 12.535 9.40045 12.1843 9.40045 11.7516C9.40045 11.3189 9.04983 10.9682 8.61716 10.9682ZM16.4504 3.13499C16.0178 3.13499 15.6671 3.48569 15.6671 3.91835C15.6671 4.35102 16.0177 4.70164 16.4504 4.70164C16.8831 4.70164 17.2337 4.35094 17.2337 3.91835C17.2337 3.48576 16.8831 3.13499 16.4504 3.13499ZM16.4504 43.8679C16.883 43.8679 17.2337 43.5172 17.2337 43.0846C17.2337 42.6519 16.883 42.3012 16.4504 42.3012C16.0178 42.3012 15.6671 42.6519 15.6671 43.0846C15.6671 43.5172 16.0178 43.8679 16.4504 43.8679ZM8.61716 36.0347C9.04975 36.0347 9.40045 35.684 9.40045 35.2513C9.40045 34.8186 9.04975 34.468 8.61716 34.468C8.18457 34.468 7.83387 34.8187 7.83387 35.2513C7.83387 35.6839 8.18457 36.0347 8.61716 36.0347ZM34.4669 23.5015C34.4604 17.7513 30.0186 12.9803 24.2837 12.5631V34.4399C30.0186 34.0226 34.4604 29.2515 34.4669 23.5015ZM2.35055 24.2847C2.78314 24.2847 3.13392 23.934 3.13392 23.5014C3.13392 23.0687 2.78322 22.7181 2.35055 22.7181C1.91788 22.7181 1.56719 23.0688 1.56719 23.5014C1.56719 23.934 1.91796 24.2847 2.35055 24.2847Z" fill="url(#paint1_linear_469_325)"/>
<defs>
<linearGradient id="paint0_linear_469_325" x1="34.8585" y1="0" x2="34.8585" y2="47" gradientUnits="userSpaceOnUse">
<stop stop-color="#00B3FF"/>
<stop offset="1" stop-color="#1C74BC"/>
</linearGradient>
<linearGradient id="paint1_linear_469_325" x1="18.0198" y1="1.55859" x2="18.0198" y2="45.4445" gradientUnits="userSpaceOnUse">
<stop stop-color="#00B3FF"/>
<stop offset="1" stop-color="#1C74BC"/>
</linearGradient>
</defs>
</svg>
