<svg width="47" height="47" viewBox="0 0 47 47" fill="none" xmlns="http://www.w3.org/2000/svg">
<path d="M23.5 28.0484C25.1723 28.0484 26.5323 26.6884 26.5323 25.0161V23.5H20.4677V25.0161C20.4677 26.6884 21.8277 28.0484 23.5 28.0484ZM25.0161 25.0161C25.0161 25.8523 24.3362 26.5323 23.5 26.5323C22.6639 26.5323 21.9839 25.8523 21.9839 25.0161H25.0161ZM15.9194 9.32572L20.0266 5.90306C20.4024 5.59042 20.7046 5.19881 20.9119 4.75609C21.1192 4.31336 21.2264 3.8304 21.2258 3.34156C21.2268 2.90269 21.1406 2.46799 20.9724 2.06265C20.8041 1.65731 20.5571 1.28939 20.2456 0.98019C19.9357 0.668456 19.567 0.421309 19.1609 0.253059C18.7548 0.0848086 18.3193 -0.00120032 17.8797 1.26531e-05H17.7493C17.0898 1.26531e-05 16.4591 0.189529 15.9194 0.543545C15.3757 0.187262 14.7394 -0.00171631 14.0894 1.26531e-05H13.959C13.5184 -0.000971049 13.0821 0.0854951 12.6751 0.2544C12.2682 0.423304 11.8989 0.671289 11.5885 0.98398C11.2783 1.29303 11.0323 1.66049 10.8648 2.06515C10.6974 2.4698 10.6117 2.90363 10.6129 3.34156C10.6129 4.33462 11.0503 5.2678 11.8122 5.90306L15.9194 9.32572ZM12.665 2.05285C12.8344 1.88218 13.036 1.74685 13.2582 1.65472C13.4803 1.56259 13.7185 1.51548 13.959 1.51614H14.0894C14.5783 1.51614 15.0377 1.70642 15.3834 2.05285L15.9194 2.58804L16.4553 2.05285C16.6247 1.88218 16.8264 1.74685 17.0485 1.65472C17.2706 1.56259 17.5088 1.51548 17.7493 1.51614H17.8797C18.3687 1.51614 18.8281 1.70642 19.1768 2.05512C19.5202 2.39929 19.7097 2.8564 19.7097 3.34156C19.7097 3.88282 19.4717 4.39224 19.0555 4.73867L15.9194 7.35172L12.7833 4.73867C12.5781 4.56826 12.4132 4.35469 12.3001 4.11319C12.187 3.8717 12.1286 3.60822 12.129 3.34156C12.129 2.8564 12.3186 2.39929 12.665 2.05285ZM5.30646 16.9064L9.41365 13.4837C9.78945 13.1711 10.0917 12.7795 10.299 12.3367C10.5063 11.894 10.6135 11.411 10.6129 10.9222C10.6139 10.4833 10.5277 10.0486 10.3595 9.6433C10.1912 9.23796 9.94419 8.87003 9.63274 8.56083C9.3228 8.2491 8.9541 8.00195 8.54798 7.8337C8.14186 7.66545 7.7064 7.57944 7.26682 7.58066H7.13643C6.47691 7.58066 5.8462 7.77017 5.30646 8.12419C4.76277 7.76791 4.12652 7.57893 3.47649 7.58066H3.34611C2.90554 7.57967 2.46916 7.66614 2.06225 7.83504C1.65534 8.00395 1.286 8.25193 0.97564 8.56462C0.665354 8.87367 0.419378 9.24114 0.251921 9.64579C0.0844645 10.0504 -0.00115404 10.4843 1.17467e-05 10.9222C1.17467e-05 11.9153 0.437415 12.8484 1.19927 13.4837L5.30646 16.9064ZM2.05209 9.63349C2.22151 9.46282 2.42314 9.3275 2.64527 9.23536C2.86741 9.14323 3.10563 9.09613 3.34611 9.09678H3.47649C3.96545 9.09678 4.42483 9.28706 4.77051 9.63349L5.30646 10.1687L5.84241 9.63349C6.01183 9.46282 6.21346 9.3275 6.4356 9.23536C6.65773 9.14323 6.89595 9.09613 7.13643 9.09678H7.26682C7.75577 9.09678 8.21515 9.28706 8.56386 9.63577C8.90727 9.97993 9.09678 10.437 9.09678 10.9222C9.09678 11.4635 8.85875 11.9729 8.44257 12.3193L5.30646 14.9324L2.17035 12.3193C1.96525 12.1489 1.80027 11.9353 1.68719 11.6938C1.5741 11.4523 1.5157 11.1889 1.51614 10.9222C1.51614 10.437 1.70566 9.97993 2.05209 9.63349ZM31.0806 9.32572L35.1878 5.90306C35.5636 5.59042 35.8659 5.19881 36.0732 4.75609C36.2805 4.31336 36.3877 3.8304 36.3871 3.34156C36.388 2.90269 36.3019 2.46799 36.1336 2.06265C35.9654 1.65731 35.7184 1.28939 35.4069 0.98019C35.097 0.668456 34.7283 0.421309 34.3222 0.253059C33.916 0.0848086 33.4806 -0.00120032 33.041 1.26531e-05H32.9106C32.2511 1.26531e-05 31.6204 0.189529 31.0806 0.543545C30.537 0.187262 29.9007 -0.00171631 29.2507 1.26531e-05H29.1203C28.6797 -0.000971049 28.2433 0.0854951 27.8364 0.2544C27.4295 0.423304 27.0602 0.671289 26.7498 0.98398C26.4395 1.29303 26.1936 1.66049 26.0261 2.06515C25.8587 2.4698 25.773 2.90363 25.7742 3.34156C25.7742 4.33462 26.2116 5.2678 26.9735 5.90306L31.0806 9.32572ZM27.8263 2.05285C27.9957 1.88218 28.1973 1.74685 28.4195 1.65472C28.6416 1.56259 28.8798 1.51548 29.1203 1.51614H29.2507C29.7396 1.51614 30.199 1.70642 30.5447 2.05285L31.0806 2.58804L31.6166 2.05285C31.786 1.88218 31.9876 1.74685 32.2098 1.65472C32.4319 1.56259 32.6701 1.51548 32.9106 1.51614H33.041C33.53 1.51614 33.9893 1.70642 34.3381 2.05512C34.6815 2.39929 34.871 2.8564 34.871 3.34156C34.871 3.88282 34.6329 4.39224 34.2168 4.73867L31.0806 7.35172L27.9445 4.73867C27.7394 4.56826 27.5745 4.35469 27.4614 4.11319C27.3483 3.8717 27.2899 3.60822 27.2903 3.34156C27.2903 2.8564 27.4798 2.39929 27.8263 2.05285ZM37.5864 13.4837L41.6936 16.9064L45.8007 13.4837C46.1765 13.1711 46.4788 12.7795 46.6861 12.3367C46.8934 11.894 47.0006 11.411 47 10.9222C47.0009 10.4833 46.9148 10.0486 46.7465 9.6433C46.5783 9.23796 46.3313 8.87003 46.0198 8.56083C45.7099 8.2491 45.3412 8.00195 44.9351 7.8337C44.529 7.66545 44.0935 7.57944 43.6539 7.58066H43.5235C42.864 7.58066 42.2333 7.77017 41.6936 8.12419C41.1499 7.76791 40.5136 7.57893 39.8636 7.58066H39.7332C39.2926 7.57967 38.8562 7.66614 38.4493 7.83504C38.0424 8.00395 37.6731 8.25193 37.3627 8.56462C37.0524 8.87367 36.8065 9.24114 36.639 9.64579C36.4715 10.0504 36.3859 10.4843 36.3871 10.9222C36.3871 11.9145 36.8245 12.8484 37.5864 13.4837ZM38.4392 9.63349C38.6086 9.46282 38.8102 9.3275 39.0324 9.23536C39.2545 9.14323 39.4927 9.09613 39.7332 9.09678H39.8636C40.3525 9.09678 40.8119 9.28706 41.1576 9.63349L41.6936 10.1687L42.2295 9.63349C42.3989 9.46282 42.6005 9.3275 42.8227 9.23536C43.0448 9.14323 43.283 9.09613 43.5235 9.09678H43.6539C44.1429 9.09678 44.6022 9.28706 44.951 9.63577C45.2944 9.97993 45.4839 10.437 45.4839 10.9222C45.4839 11.4635 45.2458 11.9729 44.8297 12.3193L41.6936 14.9324L38.5574 12.3193C38.3523 12.1489 38.1874 11.9353 38.0743 11.6938C37.9612 11.4523 37.9028 11.1889 37.9032 10.9222C37.9032 10.437 38.0927 9.97993 38.4392 9.63349Z" fill="url(#paint0_linear_469_330)"/>
<path d="M44.5757 20.4684H43.5235L42.8162 19.7611C42.5604 19.5039 42.256 19.3 41.9208 19.1611C41.5857 19.0223 41.2263 18.9513 40.8635 18.9522C40.2837 18.9518 39.7186 19.134 39.2483 19.473C38.778 19.8119 38.4265 20.2905 38.2436 20.8406L38.0033 21.5615L27.5147 31.3511L26.8931 30.1072C28.2136 29.2857 29.1957 28.0177 29.6608 26.5336H30.3226C31.9949 26.5336 33.3548 25.1737 33.3548 23.5014C33.3548 22.8002 33.1054 22.1619 32.7044 21.6472L33.1115 20.0226C33.273 19.3722 33.3548 18.7051 33.3548 18.038C33.3548 13.526 29.6843 9.85547 25.1723 9.85547H21.8277C17.3157 9.85547 13.6452 13.526 13.6452 18.038C13.6452 18.7044 13.727 19.3722 13.8893 20.0226L14.2956 21.6456C13.8773 22.1737 13.6482 22.8269 13.6452 23.5006C13.6452 25.1729 15.0051 26.5329 16.6774 26.5329H17.34C17.8046 28.0172 18.7868 29.2853 20.1077 30.1064L19.486 31.3504L8.99671 21.5615L8.7564 20.8398C8.57329 20.2899 8.22166 19.8116 7.7514 19.4728C7.28114 19.134 6.71613 18.9519 6.13653 18.9522C5.77373 18.9513 5.41433 19.0223 5.07914 19.1611C4.74396 19.3 4.43962 19.5039 4.18376 19.7611L3.47648 20.4684H2.42429C1.78157 20.4692 1.16541 20.7248 0.710944 21.1793C0.256476 21.6338 0.000802392 22.2499 0 22.8927C0.00124018 23.4527 0.195786 23.9951 0.550759 24.4282C0.905731 24.8614 1.39936 25.1587 1.94823 25.2699L4.16026 25.7119L14.4032 36.6864V47.0006H32.5968V36.6864L42.8397 25.7119L45.0518 25.2699C45.6006 25.1587 46.0943 24.8614 46.4492 24.4282C46.8042 23.9951 46.9987 23.4527 47 22.8927C46.9992 22.2499 46.7435 21.6338 46.289 21.1793C45.8346 20.7248 45.2184 20.4692 44.5757 20.4684ZM20.4677 34.1749L21.6617 35.1301C21.2466 35.251 20.8462 35.4176 20.4677 35.6266V34.1749ZM30.3226 25.0168H29.9451L30.1619 21.9845H30.3226C31.1587 21.9845 31.8387 22.6645 31.8387 23.5006C31.8387 24.3368 31.1587 25.0168 30.3226 25.0168ZM15.1613 23.5006C15.1613 22.6645 15.8413 21.9845 16.6774 21.9845H16.8381L17.0542 25.0168H16.6774C15.8413 25.0168 15.1613 24.3368 15.1613 23.5006ZM16.6774 19.4109V19.5898C16.6774 19.6891 16.6812 19.7876 16.6888 19.8839L16.7305 20.4684H16.6774C16.3022 20.4684 15.9466 20.5457 15.6139 20.6708L15.3599 19.6557C15.2281 19.1266 15.1614 18.5833 15.1613 18.038C15.1613 14.3622 18.1519 11.3716 21.8277 11.3716H25.1723C28.8481 11.3716 31.8387 14.3622 31.8387 18.038C31.8387 18.5808 31.772 19.1258 31.6401 19.655L31.3861 20.6708C31.0468 20.5395 30.6864 20.471 30.3226 20.4684H30.2703L30.3006 20.0431C30.8052 19.4463 31.0816 18.6899 31.0806 17.9084V17.4361H29.5645V17.9084C29.5639 18.3861 29.3739 18.8441 29.0361 19.1819C28.6983 19.5197 28.2403 19.7097 27.7626 19.7103C27.4923 19.711 27.2253 19.6505 26.9818 19.5333C26.7382 19.416 26.5244 19.2451 26.3564 19.0334L25.4581 17.9114C24.962 17.2886 24.3316 16.786 23.614 16.4411C22.8963 16.0963 22.11 15.9181 21.3137 15.92H21.2258C20.0874 15.9192 18.9744 16.2561 18.0275 16.888C17.6119 17.1646 17.2711 17.5397 17.0355 17.9798C16.8 18.42 16.677 18.9116 16.6774 19.4109ZM18.5711 24.9758L18.2004 19.774C18.1958 19.7127 18.1935 19.6512 18.1935 19.5898V19.4109C18.1935 18.903 18.446 18.4315 18.869 18.1495C19.5667 17.6837 20.3869 17.4355 21.2258 17.4361H21.3137C22.4713 17.4361 23.55 17.9546 24.2732 18.859L25.1715 19.9809C25.4816 20.3704 25.8757 20.6848 26.3244 20.9005C26.7731 21.1161 27.2648 21.2276 27.7626 21.2264C28.0901 21.2264 28.4069 21.1787 28.7056 21.09L28.4289 24.9758C28.2447 27.5494 26.0797 29.5651 23.5 29.5651C20.9203 29.5651 18.7553 27.5494 18.5711 24.9758ZM23.5 31.0813C24.2035 31.0813 24.8812 30.9607 25.5187 30.7485L26.3382 32.3882L23.5 34.6586L20.6618 32.3882L21.4813 30.7485C22.1188 30.9607 22.7965 31.0813 23.5 31.0813ZM26.5323 34.1749V35.6266C26.1538 35.4176 25.7534 35.251 25.3383 35.1301L26.5323 34.1749ZM1.51613 22.8927C1.51653 22.6519 1.61234 22.4212 1.78257 22.2509C1.95279 22.0807 2.18355 21.9849 2.42429 21.9845H4.10416L5.25566 20.833C5.40593 20.683 5.59202 20.5739 5.79628 20.5159C6.00055 20.458 6.21622 20.4531 6.42288 20.5019C6.62953 20.5506 6.82031 20.6513 6.97716 20.7944C7.134 20.9375 7.2517 21.1183 7.31911 21.3197L7.45329 21.7222L4.35129 24.2041L2.2469 23.7834C2.04113 23.7418 1.85602 23.6305 1.72287 23.4682C1.58972 23.3059 1.51669 23.1026 1.51613 22.8927ZM31.0806 36.089V45.4845H15.9194V36.089L5.66122 25.0979L8.3008 22.9859L18.9516 32.9272V38.9765L20.2456 37.6817C20.6549 37.2702 21.1417 36.9439 21.678 36.7218C22.2142 36.4996 22.7892 36.3861 23.3696 36.3877H23.6304C24.8107 36.3877 25.9205 36.8471 26.7544 37.6817L28.0484 38.9765V32.9272L38.6992 22.9859L41.3388 25.0979L31.0806 36.089ZM44.7538 23.7834L42.6495 24.2041L39.5475 21.7222L39.6816 21.3204C39.7485 21.1188 39.8659 20.9376 40.0226 20.7941C40.1793 20.6506 40.3701 20.5496 40.5769 20.5008C40.7837 20.4519 40.9995 20.4568 41.2038 20.5149C41.4082 20.5731 41.5943 20.6826 41.7443 20.833L42.8958 21.9845H44.5757C44.7991 21.9878 45.0135 22.0731 45.178 22.2244C45.3425 22.3756 45.4456 22.5821 45.4677 22.8044C45.4897 23.0268 45.4291 23.2495 45.2974 23.43C45.1658 23.6106 44.9723 23.7364 44.7538 23.7834Z" fill="url(#paint1_linear_469_330)"/>
<defs>
<linearGradient id="paint0_linear_469_330" x1="23.5" y1="0" x2="23.5" y2="28.0484" gradientUnits="userSpaceOnUse">
<stop stop-color="#00B3FF"/>
<stop offset="1" stop-color="#1C74BC"/>
</linearGradient>
<linearGradient id="paint1_linear_469_330" x1="23.5" y1="9.85547" x2="23.5" y2="47.0006" gradientUnits="userSpaceOnUse">
<stop stop-color="#00B3FF"/>
<stop offset="1" stop-color="#1C74BC"/>
</linearGradient>
</defs>
</svg>
