<svg width="38" height="38" viewBox="0 0 38 38" fill="none" xmlns="http://www.w3.org/2000/svg">
<path d="M18.8732 36.3447C17.5496 36.3447 16.2264 36.0779 15.0013 35.545L9.14255 32.9981C7.02591 32.077 4.77863 31.4913 2.48163 31.2623L0.557753 31.07C0.404873 31.0548 0.263108 30.9833 0.160022 30.8694C0.0569372 30.7554 -0.000100412 30.6073 1.32702e-07 30.4536V24.4185C1.32702e-07 24.2846 0.0435391 24.1542 0.123996 24.0471C0.267856 23.8548 3.71614 19.3499 8.98345 20.522C11.9459 21.1804 14.3312 22.4123 15.8105 23.33C16.8845 23.9962 18.1433 24.348 19.4511 24.348H25.3098C26.3197 24.348 27.2072 24.8823 27.7036 25.6838L32.7496 19.8704C33.7278 18.564 35.3283 17.764 37.0039 17.764H37.3808C37.4838 17.764 37.5851 17.7896 37.6756 17.8386C37.7661 17.8876 37.843 17.9584 37.8992 18.0447C37.9555 18.1309 37.9894 18.2298 37.9979 18.3324C38.0064 18.435 37.9891 18.5381 37.9478 18.6324L33.3841 29.0041C32.3864 31.2725 30.3546 32.986 27.9499 33.5873L27.147 33.7878L22.4764 35.6562C21.3269 36.1157 20.0999 36.3447 18.8732 36.3447ZM1.23868 29.8932L2.60499 30.0299C5.02987 30.272 7.40225 30.8903 9.63681 31.8626L15.4952 34.4094C17.5552 35.3051 19.9309 35.3402 22.0168 34.5057L26.7258 32.6222C26.752 32.6119 26.7786 32.6034 26.8058 32.5967L27.6494 32.3855C29.6858 31.8764 31.4059 30.4258 32.2503 28.5054L36.4128 19.0453C35.347 19.2023 34.3663 19.7766 33.713 20.6476L28.1232 27.0898C28.1239 27.1139 28.1243 27.1377 28.1243 27.1621C28.1243 28.7137 26.8618 29.9762 25.3102 29.9762H17.136C16.0753 29.9759 15.0214 30.1468 14.0152 30.4825L13.7877 29.9049L13.5953 29.3164L13.6268 29.3061C14.7583 28.929 15.9433 28.7369 17.136 28.7374H25.3102C26.1786 28.7374 26.8859 28.0305 26.8859 27.1618C26.8859 26.2931 26.179 25.5861 25.3103 25.5861H19.4516C17.9127 25.5861 16.4281 25.1697 15.1582 24.3821C13.7608 23.5151 11.508 22.3518 8.7156 21.7308C4.72661 20.8459 1.8563 23.9073 1.23905 24.6376V29.8932H1.23868ZM24.3879 17.6241C23.4355 17.6241 22.3676 17.3301 21.192 16.7422C21.0494 16.6705 20.9399 16.5469 20.8858 16.3968C20.8379 16.2626 19.7314 13.0797 21.4899 10.7259C22.768 9.01486 25.171 8.24413 28.6362 8.43734C28.7889 8.44575 28.9331 8.51044 29.0409 8.61893C29.1486 8.72742 29.2124 8.872 29.2198 9.02475C29.2322 9.27065 29.4877 15.0749 26.528 17.0073C25.8987 17.4186 25.1838 17.6241 24.3879 17.6241ZM21.9817 15.7483C23.6084 16.5112 24.9088 16.586 25.8513 15.9706C27.6063 14.8243 27.9857 11.4217 27.9949 9.6508C25.2797 9.58459 23.4312 10.1965 22.482 11.4667C21.3524 12.9794 21.7914 15.0599 21.9817 15.7483ZM14.9175 9.51048C13.8195 9.51048 12.5528 9.27528 11.4474 8.46564C9.57232 7.09162 8.71061 4.47565 8.88567 0.690754C8.89279 0.537945 8.9562 0.393174 9.06368 0.284319C9.17116 0.175465 9.31512 0.110226 9.46782 0.101164C9.73568 0.0859251 16.0759 -0.252409 18.2093 2.94997C19.2028 4.44055 19.1213 6.39291 17.968 8.75372C17.898 8.89719 17.7752 9.00803 17.6253 9.06303C17.5421 9.09387 16.3795 9.51057 14.9176 9.51057L14.9175 9.51048ZM10.1045 1.31971C10.051 4.35129 10.748 6.41767 12.1791 7.46642C13.8926 8.72179 16.2321 8.18816 16.9677 7.97383C17.8093 6.14764 17.8805 4.68963 17.1789 3.63662C15.875 1.67936 12.0511 1.29667 10.1045 1.31971Z" fill="url(#paint0_linear_469_461)"/>
<path d="M19.7541 25.3687C19.6701 25.3688 19.587 25.3518 19.5098 25.3187C19.4326 25.2856 19.3629 25.2372 19.305 25.1763C19.2471 25.1155 19.2021 25.0435 19.173 24.9647C19.1438 24.8859 19.1309 24.802 19.1352 24.7181C19.1692 24.0246 19.2304 23.3327 19.3188 22.644C19.5764 18.2617 19.4435 8.05658 12.9913 5.23326C12.8408 5.16743 12.7226 5.04452 12.6627 4.89156C12.6029 4.73861 12.6062 4.56814 12.672 4.41763C12.8088 4.10479 13.1748 3.96202 13.4876 4.0988C17.2898 5.76235 19.6819 9.904 20.4036 16.0759C20.4685 16.629 20.517 17.1743 20.5532 17.7054C22.2525 13.4113 24.8521 11.8942 25.0069 11.8074C25.3046 11.639 25.6823 11.7461 25.8502 12.0433C26.0171 12.341 25.9123 12.7176 25.6157 12.8856C25.5502 12.9239 21.5637 15.3163 20.5631 22.6938C20.4869 23.956 20.3771 24.7607 20.3668 24.8343C20.3463 24.9823 20.273 25.1179 20.1604 25.2161C20.0478 25.3143 19.9035 25.3684 19.7541 25.3686V25.3687Z" fill="url(#paint1_linear_469_461)"/>
<defs>
<linearGradient id="paint0_linear_469_461" x1="19" y1="0.0839844" x2="19" y2="36.3447" gradientUnits="userSpaceOnUse">
<stop stop-color="#00B3FF"/>
<stop offset="1" stop-color="#1C74BC"/>
</linearGradient>
<linearGradient id="paint1_linear_469_461" x1="19.2749" y1="4.04688" x2="19.2749" y2="25.3687" gradientUnits="userSpaceOnUse">
<stop stop-color="#00B3FF"/>
<stop offset="1" stop-color="#1C74BC"/>
</linearGradient>
</defs>
</svg>
