<svg width="38" height="38" viewBox="0 0 38 38" fill="none" xmlns="http://www.w3.org/2000/svg">
<g clip-path="url(#clip0_469_384)">
<path fill-rule="evenodd" clip-rule="evenodd" d="M23.493 8.73785H14.5081C14.3204 8.73785 14.1527 8.62006 14.0891 8.44305L12.1197 2.96591C12.0152 2.67623 12.231 2.37008 12.5385 2.37008L15.9001 2.36985C15.8839 -0.013913 20.1204 -0.904764 21.7106 1.21916C21.972 1.56829 22.1034 1.95883 22.1005 2.36985H25.4619C25.7694 2.36985 25.9852 2.67601 25.8812 2.96568L23.912 8.44283C23.8481 8.61984 23.6805 8.73762 23.4928 8.73762L23.493 8.73785ZM14.8209 7.84722H23.1797L24.8289 3.26048H21.5868C21.2893 3.26048 21.076 2.97392 21.1593 2.68959C21.6556 0.99361 18.1808 0.179353 17.0032 1.75332C16.5216 2.3968 17.0477 2.7123 16.7705 3.08236C16.6863 3.19458 16.5545 3.26093 16.4138 3.26093L13.1717 3.2607L14.8207 7.84744L14.8209 7.84722Z" fill="url(#paint0_linear_469_384)"/>
<path fill-rule="evenodd" clip-rule="evenodd" d="M30.7545 38.0005H7.2461C7.00028 38.0005 6.80078 37.8008 6.80078 37.5552V5.55469C6.80078 5.30888 7.00028 5.10938 7.2461 5.10938H13.5235C14.1097 5.10938 14.1097 6 13.5235 6H7.69141V37.1097H30.3091V6H24.4775C23.8913 6 23.8915 5.10938 24.4775 5.10938H30.7545C31.0003 5.10938 31.1998 5.30888 31.1998 5.55469V37.5552C31.2002 37.8008 31.0003 38.0005 30.7545 38.0005Z" fill="url(#paint1_linear_469_384)"/>
<path fill-rule="evenodd" clip-rule="evenodd" d="M12.3206 17.3494C11.9998 17.3494 11.3908 16.6035 11.0061 16.2192C10.5913 15.8049 11.2212 15.175 11.6358 15.5895L12.3209 16.2742L14.1255 14.4698C14.5405 14.0548 15.1698 14.6851 14.7552 15.0995L12.6355 17.2192C12.5484 17.3062 12.4344 17.3494 12.3206 17.3494ZM26.6796 16.2896H16.7375C16.1512 16.2896 16.1512 15.399 16.7375 15.399H26.6796C27.2656 15.399 27.2658 16.2896 26.6796 16.2896ZM12.3206 24.4286C11.9996 24.4286 11.3888 23.6816 11.0059 23.2984C10.5913 22.8833 11.2216 22.2535 11.6355 22.6683L12.3206 23.3536L14.1253 21.5485C14.5408 21.133 15.1695 21.7643 14.755 22.1784L12.6353 24.2981C12.594 24.3395 12.5449 24.3723 12.491 24.3947C12.437 24.4171 12.3791 24.4286 12.3206 24.4286ZM26.6796 23.3687H16.7375C16.1515 23.3687 16.1515 22.4781 16.7375 22.4781H26.6796C27.2656 22.4781 27.2658 23.3687 26.6796 23.3687ZM12.3206 31.5073C12 31.5073 11.3897 30.7607 11.0061 30.3773C10.5908 29.9621 11.2209 29.3322 11.636 29.7474L12.3211 30.4323L14.1257 28.6277C14.5408 28.2126 15.17 28.8434 14.7554 29.2576L12.6357 31.377C12.552 31.4604 12.4386 31.5072 12.3204 31.5071L12.3206 31.5073ZM26.6796 30.4475H16.7375C16.1515 30.4475 16.1515 29.5568 16.7375 29.5568H26.6796C27.2656 29.5568 27.2658 30.4475 26.6796 30.4475Z" fill="url(#paint2_linear_469_384)"/>
<path fill-rule="evenodd" clip-rule="evenodd" d="M28.7992 36.2402H9.20117C8.95536 36.2402 8.75586 36.0404 8.75586 35.7948V10.0508C8.75586 9.80497 8.95536 9.60547 9.20117 9.60547H28.7992C29.045 9.60547 29.2445 9.80497 29.2445 10.0508V35.7948C29.2445 36.0402 29.045 36.2402 28.7992 36.2402ZM9.64649 35.3493H28.3539V10.4961H9.64649V35.3493Z" fill="url(#paint3_linear_469_384)"/>
</g>
<defs>
<linearGradient id="paint0_linear_469_384" x1="19.0003" y1="0.0195312" x2="19.0003" y2="8.73785" gradientUnits="userSpaceOnUse">
<stop stop-color="#00B3FF"/>
<stop offset="1" stop-color="#1C74BC"/>
</linearGradient>
<linearGradient id="paint1_linear_469_384" x1="19.0003" y1="5.10938" x2="19.0003" y2="38.0005" gradientUnits="userSpaceOnUse">
<stop stop-color="#00B3FF"/>
<stop offset="1" stop-color="#1C74BC"/>
</linearGradient>
<linearGradient id="paint2_linear_469_384" x1="18.9947" y1="14.334" x2="18.9947" y2="31.5073" gradientUnits="userSpaceOnUse">
<stop stop-color="#00B3FF"/>
<stop offset="1" stop-color="#1C74BC"/>
</linearGradient>
<linearGradient id="paint3_linear_469_384" x1="19.0002" y1="9.60547" x2="19.0002" y2="36.2402" gradientUnits="userSpaceOnUse">
<stop stop-color="#00B3FF"/>
<stop offset="1" stop-color="#1C74BC"/>
</linearGradient>
<clipPath id="clip0_469_384">
<rect width="38" height="38" fill="white"/>
</clipPath>
</defs>
</svg>
