<svg width="36" height="38" viewBox="0 0 36 38" fill="none" xmlns="http://www.w3.org/2000/svg">
<path d="M30.631 24.299C30.6303 23.6483 30.3715 23.0244 29.9113 22.5642C29.4512 22.1041 28.8273 21.8453 28.1765 21.8445H20.7487C21.7745 19.3584 21.7782 16.568 20.7591 14.0791C20.7502 14.0573 20.74 14.036 20.7285 14.0154C20.519 13.6384 20.2085 13.3275 19.8319 13.1174C19.4553 12.9073 19.0275 12.8065 18.5968 12.8263C18.166 12.8461 17.7493 12.9857 17.3935 13.2295C17.0378 13.4732 16.7571 13.8113 16.5831 14.2059C16.5556 14.2682 16.5391 14.3348 16.5343 14.4027L16.359 16.8919C16.0965 18.3225 15.3246 19.6095 14.1862 20.5147C13.7302 20.6747 12.8953 21.2409 10.7174 23.3133V23.2514C10.7171 22.9251 10.5873 22.6123 10.3566 22.3816C10.1259 22.1509 9.81307 22.0211 9.4868 22.0208H3.2919C2.96563 22.0212 2.65282 22.1509 2.42212 22.3816C2.19141 22.6123 2.06166 22.9251 2.06132 23.2514V35.6139C2.06156 35.9402 2.19127 36.2531 2.42199 36.4839C2.6527 36.7147 2.96557 36.8445 3.2919 36.8448H9.48643C9.81271 36.8445 10.1255 36.7148 10.3563 36.4841C10.587 36.2534 10.7167 35.9406 10.7171 35.6143V35.5601C12.4205 35.9358 13.3096 36.3824 14.3466 37.3457C14.7543 37.7336 15.2974 37.9469 15.8601 37.9402H25.462C25.928 37.9404 26.3843 37.8079 26.7777 37.5582C27.1711 37.3085 27.4852 36.9519 27.6834 36.5302C27.8815 36.1085 27.9555 35.639 27.8966 35.1768C27.8377 34.7146 27.6484 34.2787 27.3508 33.9202C28.1172 33.4592 28.6623 32.634 28.6623 31.7572C28.6629 31.2117 28.4809 30.6817 28.1452 30.2517C28.9257 29.7894 29.4857 28.9361 29.4857 28.0283C29.4863 27.5165 29.3261 27.0175 29.0276 26.6018C29.4978 26.4274 29.9035 26.1132 30.1901 25.7016C30.4767 25.29 30.6306 24.8006 30.631 24.299ZM9.53688 35.6141C9.53639 35.6273 9.53091 35.6399 9.52155 35.6492C9.51219 35.6586 9.49964 35.664 9.48643 35.6645H3.2919C3.27869 35.664 3.26615 35.6586 3.2568 35.6492C3.24745 35.6399 3.24199 35.6273 3.24152 35.6141V23.2516C3.24201 23.2384 3.24748 23.2259 3.25682 23.2165C3.26616 23.2072 3.27869 23.2017 3.2919 23.2012H9.48643C9.49964 23.2017 9.51218 23.2072 9.52153 23.2165C9.53089 23.2259 9.53637 23.2384 9.53688 23.2516V35.6141ZM28.1765 25.5733H26.1256C25.9691 25.5733 25.819 25.6354 25.7083 25.7461C25.5977 25.8568 25.5355 26.0069 25.5355 26.1634C25.5355 26.3199 25.5977 26.47 25.7083 26.5806C25.819 26.6913 25.9691 26.7535 26.1256 26.7535H27.0312C27.3691 26.7539 27.6929 26.8883 27.9318 27.1272C28.1707 27.3661 28.3051 27.69 28.3055 28.0278C28.3055 28.6916 27.6495 29.367 26.9762 29.4253C26.7283 29.3435 26.4689 29.3019 26.2078 29.3022C26.0513 29.3022 25.9012 29.3643 25.7906 29.475C25.6799 29.5857 25.6177 29.7358 25.6177 29.8923C25.6177 30.0488 25.6799 30.1989 25.7906 30.3095C25.9012 30.4202 26.0513 30.4824 26.2078 30.4824C26.357 30.4822 26.5051 30.5084 26.6452 30.5597C26.6608 30.5665 26.6766 30.5727 26.6928 30.5782C26.9262 30.6746 27.1257 30.838 27.2662 31.0477C27.4067 31.2575 27.4818 31.5042 27.4821 31.7567C27.4821 32.4073 26.7999 33.0696 26.1054 33.1166C25.8956 33.0596 25.6793 33.0308 25.4619 33.031C25.3054 33.031 25.1554 33.0932 25.0447 33.2038C24.934 33.3145 24.8719 33.4646 24.8719 33.6211C24.8719 33.7776 24.934 33.9277 25.0447 34.0383C25.1554 34.149 25.3054 34.2112 25.4619 34.2112C25.5855 34.2111 25.7084 34.229 25.8268 34.2644C25.8408 34.2694 25.855 34.274 25.8695 34.278C26.1559 34.3746 26.3987 34.5698 26.5545 34.8288C26.7103 35.0878 26.769 35.3938 26.72 35.6921C26.671 35.9904 26.5176 36.2615 26.2872 36.4571C26.0568 36.6528 25.7643 36.7601 25.462 36.76H15.8601C15.7291 36.763 15.5988 36.7398 15.4769 36.6919C15.355 36.644 15.2438 36.5723 15.1498 36.4811C13.8966 35.3167 12.8011 34.7867 10.7171 34.353V24.9518L10.8217 24.85C13.7181 22.0372 14.4276 21.672 14.5782 21.6277C14.6657 21.6097 14.748 21.5721 14.8188 21.5178C16.2451 20.4253 17.2109 18.8386 17.5263 17.0699C17.53 17.0492 17.5326 17.0283 17.5342 17.0074L17.7038 14.5994C17.7997 14.4228 17.9406 14.2748 18.1123 14.1704C18.2839 14.066 18.4802 14.0089 18.6811 14.005C18.8819 14.0011 19.0803 14.0505 19.2559 14.1482C19.4314 14.2459 19.578 14.3883 19.6806 14.5611C20.1734 15.7793 20.3946 17.0904 20.3287 18.4029C20.2629 19.7154 19.9116 20.9977 19.2994 22.1605C19.2521 22.2505 19.2289 22.3511 19.2319 22.4526C19.235 22.5542 19.2642 22.6532 19.3167 22.7401C19.3693 22.8271 19.4434 22.899 19.5319 22.9489C19.6204 22.9988 19.7202 23.025 19.8218 23.025H28.1765C28.5128 23.0276 28.8345 23.163 29.0714 23.4017C29.3083 23.6404 29.4412 23.9631 29.4412 24.2994C29.4412 24.6357 29.3083 24.9584 29.0714 25.1971C28.8345 25.4358 28.5128 25.5712 28.1765 25.5737V25.5733ZM7.53653 25.1396V25.2107C7.53653 25.3672 7.47436 25.5173 7.36369 25.628C7.25303 25.7387 7.10294 25.8008 6.94643 25.8008C6.78993 25.8008 6.63984 25.7387 6.52917 25.628C6.41851 25.5173 6.35634 25.3672 6.35634 25.2107V25.1396C6.35634 24.9831 6.41851 24.833 6.52917 24.7223C6.63984 24.6116 6.78993 24.5495 6.94643 24.5495C7.10294 24.5495 7.25303 24.6116 7.36369 24.7223C7.47436 24.833 7.53653 24.9831 7.53653 25.1396ZM25.2431 5.23282C25.2075 5.12329 25.1407 5.02656 25.0508 4.95457C24.9609 4.88257 24.8519 4.83845 24.7372 4.82765L20.5078 4.42933L18.8216 0.529977C18.7759 0.424273 18.7003 0.334252 18.604 0.271011C18.5078 0.20777 18.3951 0.174072 18.28 0.174072C18.1648 0.174072 18.0522 0.20777 17.9559 0.271011C17.8597 0.334252 17.784 0.424273 17.7383 0.529977L16.0524 4.42926L11.823 4.82757C11.7083 4.83838 11.5994 4.8825 11.5095 4.95449C11.4196 5.02648 11.3527 5.1232 11.3172 5.23272C11.2816 5.34224 11.2788 5.45978 11.3092 5.57085C11.3396 5.68193 11.4019 5.78167 11.4883 5.85781L14.6757 8.66607L13.7477 12.8115C13.7225 12.9239 13.7308 13.0412 13.7715 13.1489C13.8122 13.2566 13.8835 13.3501 13.9767 13.4178C14.0698 13.4855 14.1808 13.5244 14.2958 13.5298C14.4108 13.5352 14.5249 13.5069 14.624 13.4482L18.28 11.2847L21.9358 13.4484C22.0349 13.507 22.149 13.5354 22.264 13.53C22.379 13.5245 22.49 13.4856 22.5831 13.4179C22.6763 13.3502 22.7476 13.2568 22.7883 13.149C22.829 13.0413 22.8373 12.924 22.8121 12.8116L21.8841 8.66622L25.0716 5.85795C25.1581 5.78186 25.2204 5.68213 25.2509 5.57104C25.2813 5.45996 25.2786 5.34239 25.2431 5.23282ZM20.8422 8.01151C20.7629 8.08141 20.7038 8.17135 20.6711 8.27192C20.6385 8.37248 20.6334 8.47998 20.6565 8.58316L21.3627 11.7376L18.5809 10.0912C18.4899 10.0373 18.3861 10.0089 18.2803 10.0089C18.1746 10.0089 18.0708 10.0373 17.9798 10.0912L15.198 11.7376L15.9038 8.58294C15.9269 8.47976 15.9218 8.37226 15.8892 8.27169C15.8565 8.17113 15.7974 8.08119 15.7181 8.01129L13.2927 5.8744L16.5109 5.57124C16.6162 5.56131 16.7169 5.52328 16.8024 5.46113C16.8879 5.39897 16.9552 5.31497 16.9972 5.21792L18.28 2.25114L19.5628 5.21814C19.6047 5.3152 19.672 5.39919 19.7575 5.46135C19.8431 5.5235 19.9437 5.56153 20.049 5.57146L23.2673 5.87462L20.8422 8.01151ZM35.632 8.69063C35.5964 8.5811 35.5295 8.48438 35.4396 8.41238C35.3497 8.34039 35.2408 8.29627 35.1261 8.28546L32.1456 8.00472L30.9572 5.25687C30.9115 5.15116 30.8359 5.06114 30.7396 4.9979C30.6434 4.93466 30.5307 4.90096 30.4156 4.90096C30.3004 4.90096 30.1878 4.93466 30.0915 4.9979C29.9953 5.06114 29.9197 5.15116 29.8739 5.25687L28.6859 8.00472L25.7054 8.28546C25.5907 8.29626 25.4817 8.34037 25.3918 8.41237C25.3019 8.48436 25.235 8.58109 25.1995 8.69063C25.1639 8.80016 25.1611 8.91772 25.1915 9.0288C25.2219 9.13989 25.2842 9.23964 25.3706 9.31577L27.6169 11.2947L26.9629 14.2161C26.9378 14.3285 26.9461 14.4458 26.9868 14.5536C27.0275 14.6613 27.0989 14.7548 27.192 14.8225C27.2852 14.8902 27.3962 14.9291 27.5113 14.9345C27.6263 14.9398 27.7404 14.9114 27.8395 14.8527L30.4158 13.328L32.9919 14.8527C33.091 14.9114 33.2051 14.9398 33.3201 14.9344C33.4352 14.929 33.5461 14.89 33.6393 14.8223C33.7325 14.7546 33.8038 14.6612 33.8445 14.5534C33.8852 14.4457 33.8935 14.3284 33.8683 14.216L33.2143 11.2946L35.4605 9.31562C35.5468 9.2395 35.6091 9.13977 35.6395 9.02872C35.6699 8.91767 35.6671 8.80015 35.6316 8.69063H35.632ZM32.1725 10.6401C32.0932 10.71 32.0341 10.7999 32.0014 10.9005C31.9687 11.0011 31.9637 11.1086 31.9868 11.2117L32.419 13.1421L30.7162 12.1346C30.6252 12.0807 30.5214 12.0523 30.4157 12.0523C30.3099 12.0523 30.2061 12.0807 30.1151 12.1346L28.4129 13.1421L28.845 11.2117C28.8681 11.1086 28.863 11.0011 28.8303 10.9005C28.7977 10.7999 28.7386 10.71 28.6592 10.6401L27.1749 9.33251L29.1444 9.14693C29.2497 9.13701 29.3503 9.09899 29.4359 9.03683C29.5214 8.97468 29.5887 8.89067 29.6307 8.79361L30.4157 6.97796L31.2006 8.79361C31.2426 8.89067 31.3099 8.97468 31.3954 9.03683C31.481 9.09899 31.5817 9.13701 31.6869 9.14693L33.6564 9.33251L32.1725 10.6401ZM10.8553 8.28546L7.8748 8.00472L6.68598 5.25687C6.64028 5.15116 6.56464 5.06114 6.4684 4.9979C6.37215 4.93466 6.25951 4.90096 6.14435 4.90096C6.02918 4.90096 5.91654 4.93466 5.82029 4.9979C5.72405 5.06114 5.64842 5.15116 5.60271 5.25687L4.4147 8.00472L1.4342 8.28546C1.31953 8.29626 1.21053 8.34037 1.12064 8.41237C1.03074 8.48436 0.963877 8.58109 0.92829 8.69063C0.892703 8.80016 0.889948 8.91772 0.920365 9.0288C0.950783 9.13989 1.01304 9.23964 1.09947 9.31577L3.34567 11.2947L2.69162 14.2161C2.6665 14.3285 2.6748 14.4458 2.71551 14.5535C2.75622 14.6612 2.82755 14.7547 2.92072 14.8223C3.01389 14.89 3.12483 14.9289 3.23985 14.9343C3.35488 14.9397 3.46897 14.9114 3.56806 14.8527L6.14435 13.328L8.72041 14.8527C8.81951 14.9114 8.93361 14.9397 9.04864 14.9343C9.16367 14.9289 9.27461 14.89 9.36777 14.8223C9.46094 14.7546 9.53226 14.6611 9.57295 14.5534C9.61364 14.4457 9.62193 14.3284 9.59678 14.216L8.94273 11.2946L11.189 9.31562C11.2754 9.23949 11.3377 9.13974 11.3681 9.02866C11.3985 8.91757 11.3958 8.80002 11.3602 8.69048C11.3246 8.58094 11.2577 8.48421 11.1678 8.41222C11.0779 8.34022 10.9689 8.29611 10.8543 8.28531L10.8553 8.28546ZM7.90158 10.6401C7.82224 10.71 7.76314 10.7999 7.73047 10.9005C7.6978 11.0011 7.69275 11.1086 7.71584 11.2117L8.14794 13.142L6.44493 12.1346C6.35392 12.0807 6.2501 12.0523 6.14435 12.0523C6.03859 12.0523 5.93477 12.0807 5.84377 12.1346L4.14149 13.1421L4.57366 11.2117C4.59676 11.1086 4.5917 11.0011 4.55903 10.9005C4.52636 10.7999 4.46726 10.71 4.38792 10.6401L2.90369 9.33251L4.87313 9.14693C4.97841 9.13701 5.0791 9.09899 5.16465 9.03683C5.2502 8.97468 5.31748 8.89067 5.35944 8.79361L6.14435 6.97803L6.92932 8.79361C6.97128 8.89066 7.03855 8.97466 7.12408 9.03681C7.20962 9.09897 7.31029 9.137 7.41556 9.14693L9.385 9.33251L7.90158 10.6401Z" fill="url(#paint0_linear_469_391)"/>
<defs>
<linearGradient id="paint0_linear_469_391" x1="18.2799" y1="0.174072" x2="18.2799" y2="37.9404" gradientUnits="userSpaceOnUse">
<stop stop-color="#00B3FF"/>
<stop offset="1" stop-color="#1C74BC"/>
</linearGradient>
</defs>
</svg>
